<svg width="24" height="24" viewBox="0 0 24 24" fill="none" xmlns="http://www.w3.org/2000/svg">
<circle cx="12" cy="12" r="12" fill="white"/>
<path fill-rule="evenodd" clip-rule="evenodd" d="M14.0173 8.35589L12.0007 10.371L9.98399 8.3543C9.87775 8.24365 9.75048 8.15532 9.60965 8.09449C9.46883 8.03366 9.31727 8.00156 9.16388 8.00006C9.01048 7.99855 8.85833 8.02769 8.71634 8.08575C8.57435 8.14381 8.44538 8.22964 8.33699 8.33819C8.2286 8.44674 8.14297 8.57584 8.08511 8.71791C8.02726 8.85998 7.99835 9.01218 8.00007 9.16557C8.0018 9.31896 8.03413 9.47047 8.09516 9.61121C8.1562 9.75194 8.24471 9.87908 8.35552 9.98516L10.3714 12.0018L8.35712 14.0161C8.14653 14.2337 8.02988 14.5253 8.03231 14.8281C8.03475 15.1309 8.15607 15.4206 8.37013 15.6347C8.58419 15.8489 8.87384 15.9704 9.17663 15.973C9.47942 15.9755 9.77109 15.859 9.98878 15.6486L12.0007 13.6303L14.0157 15.6462C14.1221 15.7566 14.2493 15.8447 14.3901 15.9054C14.5309 15.9661 14.6824 15.9981 14.8357 15.9995C14.989 16.001 15.141 15.9719 15.2829 15.9139C15.4248 15.8559 15.5538 15.7702 15.6622 15.6618C15.7706 15.5534 15.8563 15.4244 15.9143 15.2825C15.9723 15.1406 16.0014 14.9886 15.9999 14.8353C15.9985 14.682 15.9665 14.5305 15.9058 14.3897C15.8452 14.2489 15.757 14.1216 15.6466 14.0153L13.6347 12.0026L15.649 9.98835C15.8596 9.77077 15.9762 9.47915 15.9738 9.17636C15.9713 8.87357 15.85 8.58387 15.636 8.3697C15.4219 8.15554 15.1323 8.03407 14.8295 8.03149C14.5267 8.0289 14.235 8.14541 14.0173 8.35589Z" fill="#444A58"/>
</svg>
