<svg width="26" height="26" viewBox="0 0 26 26" fill="none" xmlns="http://www.w3.org/2000/svg">
<rect width="26" height="26" rx="5" fill="#428AF5"/>
<g clip-path="url(#clip0_0_1)">
<path fill-rule="evenodd" clip-rule="evenodd" d="M16.9531 14.1872L12.6674 18.6443C12.4696 18.8249 12.2234 18.9439 11.959 18.9868C11.6946 19.0297 11.4235 18.9946 11.1787 18.8859C10.9339 18.7771 10.7261 18.5994 10.5807 18.3744C10.4353 18.1495 10.3586 17.887 10.36 17.6192V8.38089C10.36 8.11416 10.4375 7.85316 10.5829 7.62956C10.7284 7.40597 10.9356 7.22938 11.1794 7.12121C11.4232 7.01305 11.6932 6.97796 11.9565 7.0202C12.2199 7.06244 12.4654 7.18019 12.6631 7.35918L16.9531 11.8163C17.1182 11.9665 17.2501 12.1496 17.3403 12.3537C17.4305 12.5578 17.4772 12.7786 17.4772 13.0018C17.4772 13.2249 17.4305 13.4457 17.3403 13.6498C17.2501 13.8539 17.1182 14.037 16.9531 14.1872Z" fill="white"/>
</g>
<defs>
<clipPath id="clip0_0_1">
<rect width="12" height="12" fill="white" transform="translate(7 7)"/>
</clipPath>
</defs>
</svg>
