<svg width="26" height="26" viewBox="0 0 26 26" fill="none" xmlns="http://www.w3.org/2000/svg">
<rect x="26" y="26" width="26" height="26" rx="5" transform="rotate(180 26 26)" fill="#E9E9E9"/>
<g clip-path="url(#clip0_0_1)">
<path fill-rule="evenodd" clip-rule="evenodd" d="M9.04685 11.8128L13.3326 7.35568C13.5304 7.17511 13.7766 7.05609 14.041 7.01319C14.3054 6.97029 14.5765 7.00536 14.8213 7.11411C15.0661 7.22286 15.2739 7.40059 15.4193 7.62555C15.5647 7.85051 15.6414 8.11297 15.64 8.38082L15.64 17.6191C15.64 17.8858 15.5625 18.1468 15.4171 18.3704C15.2716 18.594 15.0644 18.7706 14.8206 18.8788C14.5768 18.9869 14.3068 19.022 14.0435 18.9798C13.7801 18.9376 13.5346 18.8198 13.3369 18.6408L9.04685 14.1837C8.88179 14.0335 8.74992 13.8504 8.65969 13.6463C8.56945 13.4422 8.52284 13.2214 8.52284 12.9983C8.52284 12.7751 8.56945 12.5543 8.65969 12.3502C8.74992 12.1461 8.88179 11.963 9.04685 11.8128Z" fill="white"/>
</g>
<defs>
<clipPath id="clip0_0_1">
<rect width="12" height="12" fill="white" transform="translate(19 19) rotate(180)"/>
</clipPath>
</defs>
</svg>
